<?xml version="1.0" standalone="no"?>
<!DOCTYPE svg PUBLIC "-//W3C//DTD SVG 20010904//EN"
 "http://www.w3.org/TR/2001/REC-SVG-20010904/DTD/svg10.dtd">
<svg version="1.0" xmlns="http://www.w3.org/2000/svg"
 width="584.000000pt" height="372.000000pt" viewBox="0 0 584.000000 372.000000"
 preserveAspectRatio="xMidYMid meet">

<g transform="translate(0.000000,372.000000) scale(0.100000,-0.100000)"
fill="#000000" stroke="none">
<path d="M987 2738 c-267 -27 -497 -139 -497 -241 0 -94 106 -167 319 -221
231 -58 546 -57 783 3 62 16 114 27 116 26 2 -1 -19 -19 -47 -39 -68 -50 -176
-168 -236 -257 -110 -163 -208 -399 -239 -577 -15 -86 -13 -88 -36 73 -32 223
-165 495 -325 664 -150 158 -314 226 -428 177 -119 -50 -182 -231 -157 -447
33 -283 168 -568 359 -756 156 -154 317 -205 429 -136 58 36 96 96 121 193
l20 75 0 -53 c2 -142 58 -266 141 -310 175 -93 466 133 653 504 136 271 188
575 129 762 -41 131 -133 198 -243 176 -27 -6 -49 -8 -49 -5 1 3 18 18 39 32
53 37 77 90 62 140 -22 75 -119 134 -294 179 -182 47 -401 61 -620 38z"/>
<path d="M2747 1975 c-104 -36 -162 -135 -160 -273 2 -196 165 -306 362 -244
57 18 78 39 68 65 -5 15 -11 14 -54 -5 -68 -30 -165 -30 -219 1 -58 32 -86 87
-92 175 -11 173 64 254 223 244 33 -2 75 -11 93 -20 31 -16 32 -16 38 7 3 13
3 28 0 34 -19 31 -190 41 -259 16z"/>
<path d="M3150 1720 l0 -270 150 0 150 0 0 25 0 24 -122 3 -123 3 -3 103 -3
102 91 0 c89 0 90 0 90 25 0 25 -1 25 -90 25 l-90 0 0 90 0 90 120 0 120 0 0
25 0 25 -145 0 -145 0 0 -270z"/>
<path d="M3570 1720 l0 -270 30 0 30 0 0 120 0 120 31 0 c34 0 41 -6 167 -152
67 -78 80 -88 110 -88 l33 0 -78 90 c-43 50 -88 103 -100 119 l-23 28 37 24
c57 37 75 69 75 129 0 102 -69 150 -219 150 l-93 0 0 -270z m219 203 c37 -31
44 -98 15 -146 -14 -23 -78 -46 -131 -47 l-43 0 0 105 0 105 69 0 c51 0 74 -5
90 -17z"/>
<path d="M4060 1720 l0 -270 150 0 150 0 0 30 0 30 -120 0 -120 0 0 240 0 240
-30 0 -30 0 0 -270z"/>
<path d="M4496 1726 c-58 -147 -106 -268 -106 -271 0 -3 12 -5 28 -5 25 0 30
7 63 93 l35 92 124 0 124 0 40 -92 c36 -86 41 -93 68 -93 15 0 28 3 28 8 0 4
-51 124 -114 267 l-114 260 -35 3 -35 3 -106 -265z m194 77 l47 -108 -95 -3
c-52 -1 -96 -1 -98 1 -2 2 12 44 32 93 20 49 40 100 45 113 5 13 12 21 16 17
3 -3 27 -54 53 -113z"/>
<path d="M4990 1720 l0 -270 53 -2 c171 -7 251 31 270 128 12 65 -29 148 -83
166 -10 3 -8 12 9 34 30 41 36 92 17 137 -22 54 -76 76 -183 77 l-83 0 0 -270z
m190 202 c17 -14 23 -29 23 -61 0 -62 -34 -93 -107 -99 l-56 -4 0 91 0 91 59
0 c42 0 65 -5 81 -18z m20 -220 c46 -23 65 -75 47 -129 -18 -54 -53 -75 -136
-81 l-71 -5 0 117 0 116 63 0 c39 0 75 -6 97 -18z"/>
<path d="M2436 1504 c-20 -19 -20 -38 -1 -54 17 -14 51 -5 59 17 6 15 -19 53
-35 53 -4 0 -15 -7 -23 -16z"/>
<path d="M5436 1504 c-20 -19 -20 -38 -1 -54 17 -14 51 -5 59 17 6 15 -19 53
-35 53 -4 0 -15 -7 -23 -16z"/>
</g>
</svg>
