<?xml version="1.0" standalone="no"?>
<!DOCTYPE svg PUBLIC "-//W3C//DTD SVG 20010904//EN"
 "http://www.w3.org/TR/2001/REC-SVG-20010904/DTD/svg10.dtd">
<svg version="1.0" xmlns="http://www.w3.org/2000/svg"
 width="229.000000pt" height="72.000000pt" viewBox="0 0 229.000000 72.000000"
 preserveAspectRatio="xMidYMid meet">

<g transform="translate(0.000000,72.000000) scale(0.100000,-0.100000)"
fill="#000000" stroke="none">
<path d="M274 706 c-135 -33 -235 -138 -264 -279 -50 -243 174 -467 417 -417
81 17 129 44 189 106 188 192 93 520 -171 589 -69 18 -101 18 -171 1z m220
-35 c102 -45 187 -162 201 -276 8 -63 -13 -157 -48 -212 -33 -52 -100 -111
-156 -136 -35 -16 -67 -21 -131 -22 -73 0 -93 4 -141 28 -67 32 -142 109 -172
175 -30 66 -30 198 0 264 25 54 90 128 141 160 83 51 216 59 306 19z"/>
<path d="M295 620 c-3 -5 -1 -10 5 -10 6 0 8 -4 5 -10 -3 -5 -1 -10 5 -10 6 0
8 -4 5 -10 -3 -5 -1 -10 5 -10 7 0 9 7 6 16 -3 9 -6 22 -6 30 0 16 -16 19 -25
4z"/>
<path d="M410 588 c-12 -22 -12 -22 6 -6 10 10 15 20 12 24 -4 3 -12 -5 -18
-18z"/>
<path d="M544 575 c1 -8 7 -20 13 -26 7 -7 9 -3 6 15 -6 27 -23 37 -19 11z"/>
<path d="M166 563 c-3 -10 -9 -25 -12 -33 -3 -8 3 -5 13 8 l19 23 12 -27 c7
-14 15 -24 19 -21 3 4 0 13 -6 21 -7 8 -10 19 -7 25 3 5 -1 12 -10 15 -21 8
-21 8 -28 -11z"/>
<path d="M504 529 c0 -13 4 -14 18 -5 10 6 18 13 18 16 0 3 -8 6 -18 6 -10 0
-18 -8 -18 -17z"/>
<path d="M286 516 c-11 -17 -22 -23 -32 -19 -10 4 -22 0 -28 -9 -7 -9 -22 -18
-34 -20 -21 -3 -16 -14 70 -165 51 -89 95 -162 98 -162 3 0 46 73 97 162 85
150 90 162 70 165 -12 2 -30 11 -39 19 -9 8 -21 12 -27 9 -6 -4 -18 5 -27 19
-18 28 -54 31 -62 5 -5 -13 -3 -13 11 -1 15 12 20 10 42 -13 13 -14 30 -23 38
-20 8 3 18 1 21 -5 4 -6 -39 -10 -124 -10 -85 0 -128 4 -124 10 3 6 13 8 21 5
8 -3 25 6 38 20 22 23 27 25 42 13 14 -12 16 -12 11 1 -8 26 -44 23 -62 -4z
m234 -68 c0 -7 -8 -23 -18 -36 -17 -22 -22 -23 -147 -20 l-129 3 -19 33 -19
32 166 0 c126 0 166 -3 166 -12z m-40 -75 c0 -5 -9 -19 -20 -33 -11 -14 -20
-32 -20 -40 0 -10 -7 -7 -20 10 -17 22 -19 23 -26 7 -6 -16 -8 -17 -24 -2 -16
15 -18 14 -24 -2 -7 -17 -8 -17 -21 0 -13 18 -14 18 -25 -3 -12 -22 -12 -21
-36 16 -13 22 -24 42 -24 47 0 4 54 7 120 7 66 0 120 -3 120 -7z m-156 -107
c-3 -9 -10 -16 -15 -16 -11 0 -12 21 -3 45 6 15 8 15 16 2 4 -8 5 -22 2 -31z
m49 8 c-3 -8 -12 -13 -19 -10 -17 6 -19 -10 -2 -20 6 -4 17 1 23 10 11 15 13
15 19 1 5 -15 -22 -85 -34 -85 -3 0 -14 16 -23 35 -16 33 -16 37 0 70 12 26
20 32 29 24 7 -6 10 -17 7 -25z m42 -12 c-6 -16 -7 -16 -16 0 -5 9 -6 24 -3
33 7 16 8 16 16 0 5 -9 7 -24 3 -33z"/>
<path d="M244 425 c4 -24 16 -30 16 -7 0 12 -4 22 -9 22 -5 0 -8 -7 -7 -15z"/>
<path d="M301 424 c0 -11 3 -14 6 -6 3 7 2 16 -1 19 -3 4 -6 -2 -5 -13z"/>
<path d="M320 425 c0 -8 5 -15 10 -15 6 0 10 7 10 15 0 8 -4 15 -10 15 -5 0
-10 -7 -10 -15z"/>
<path d="M446 425 c4 -8 8 -15 10 -15 2 0 4 7 4 15 0 8 -4 15 -10 15 -5 0 -7
-7 -4 -15z"/>
<path d="M470 424 c0 -8 5 -12 10 -9 6 4 8 11 5 16 -9 14 -15 11 -15 -7z"/>
<path d="M80 456 c0 -2 9 -6 20 -9 11 -3 18 -1 14 4 -5 9 -34 13 -34 5z"/>
<path d="M614 446 c-10 -8 -16 -17 -13 -20 3 -3 14 3 24 14 21 23 17 26 -11 6z"/>
<path d="M164 405 c-4 -8 -11 -12 -16 -9 -6 4 -5 -3 2 -15 14 -27 28 -20 28
14 0 28 -6 32 -14 10z"/>
<path d="M540 398 c0 -35 16 -44 30 -17 8 13 8 19 2 15 -6 -4 -15 2 -21 11 -9
16 -10 14 -11 -9z"/>
<path d="M75 400 c3 -5 14 -10 23 -10 15 0 15 2 2 10 -20 13 -33 13 -25 0z"/>
<path d="M610 391 c0 -5 9 -7 20 -4 11 3 20 7 20 9 0 2 -9 4 -20 4 -11 0 -20
-4 -20 -9z"/>
<path d="M75 370 c3 -5 14 -10 23 -10 15 0 15 2 2 10 -20 13 -33 13 -25 0z"/>
<path d="M145 333 c1 -15 8 -27 15 -25 6 1 9 -2 5 -8 -3 -5 1 -13 9 -16 9 -3
16 -10 16 -15 0 -6 -10 -5 -22 1 -23 11 -23 11 1 -9 13 -12 29 -21 37 -21 8 0
14 -5 14 -11 0 -6 -9 -8 -22 -4 -23 7 -23 7 -3 -11 33 -31 73 -54 95 -54 27 0
25 11 -7 34 -22 16 -25 17 -20 3 4 -11 2 -14 -9 -10 -7 3 -14 13 -14 24 0 10
-9 24 -19 31 -11 8 -23 26 -26 41 -4 15 -11 30 -16 32 -4 3 -5 13 -2 23 3 9 3
14 -2 10 -4 -4 -14 -3 -21 3 -10 8 -12 4 -9 -18z"/>
<path d="M562 348 c-7 -7 -12 -8 -13 -2 0 5 -9 -16 -19 -46 -10 -30 -17 -56
-15 -58 8 -8 46 20 42 31 -2 7 2 20 11 30 11 12 12 17 2 17 -10 0 -10 3 0 15
16 19 8 29 -8 13z m-7 -38 c3 -5 1 -10 -4 -10 -6 0 -11 5 -11 10 0 6 2 10 4
10 3 0 8 -4 11 -10z m-5 -34 c0 -3 -4 -8 -10 -11 -5 -3 -10 -1 -10 4 0 6 5 11
10 11 6 0 10 -2 10 -4z"/>
<path d="M623 343 c9 -2 23 -2 30 0 6 3 -1 5 -18 5 -16 0 -22 -2 -12 -5z"/>
<path d="M78 333 c7 -3 16 -2 19 1 4 3 -2 6 -13 5 -11 0 -14 -3 -6 -6z"/>
<path d="M632 318 c-7 -7 -12 -16 -12 -21 0 -5 7 -1 16 8 9 9 14 18 12 20 -2
3 -10 -1 -16 -7z"/>
<path d="M78 303 c7 -3 16 -2 19 1 4 3 -2 6 -13 5 -11 0 -14 -3 -6 -6z"/>
<path d="M100 270 c-6 -12 -9 -24 -7 -27 3 -2 11 5 17 17 6 12 9 24 7 27 -3 2
-11 -5 -17 -17z"/>
<path d="M609 271 c11 -7 10 -10 -5 -13 -17 -3 -17 -4 4 -10 12 -3 20 -2 16 3
-3 5 1 9 8 9 9 0 9 3 -2 10 -8 5 -19 10 -25 10 -5 0 -4 -4 4 -9z"/>
<path d="M481 218 c-5 -14 -14 -29 -20 -33 -7 -4 -8 0 -4 11 6 16 4 16 -20 -2
-32 -23 -34 -34 -7 -34 22 0 63 23 95 54 19 18 19 19 1 12 -12 -4 -23 -2 -27
6 -5 8 -11 4 -18 -14z"/>
<path d="M115 220 c-3 -6 1 -7 9 -4 18 7 21 14 7 14 -6 0 -13 -4 -16 -10z"/>
<path d="M570 211 c0 -9 30 -24 36 -18 2 1 -6 8 -16 15 -11 7 -20 8 -20 3z"/>
<path d="M125 190 c-3 -5 -1 -10 4 -10 6 0 11 5 11 10 0 6 -2 10 -4 10 -3 0
-8 -4 -11 -10z"/>
<path d="M145 170 c-3 -5 -2 -10 4 -10 5 0 13 5 16 10 3 6 2 10 -4 10 -5 0
-13 -4 -16 -10z"/>
<path d="M540 160 c8 -5 20 -10 25 -10 6 0 3 5 -5 10 -8 5 -19 10 -25 10 -5 0
-3 -5 5 -10z"/>
<path d="M175 150 c-3 -5 -1 -10 4 -10 6 0 11 5 11 10 0 6 -2 10 -4 10 -3 0
-8 -4 -11 -10z"/>
<path d="M200 128 c-12 -22 -12 -22 6 -6 10 10 15 20 12 24 -4 3 -12 -5 -18
-18z"/>
<path d="M512 130 c7 -10 14 -18 15 -16 6 6 -9 36 -18 36 -5 0 -4 -9 3 -20z"/>
<path d="M244 117 c3 -10 6 -23 6 -28 0 -5 5 -9 10 -9 14 0 12 13 -6 36 -14
17 -15 17 -10 1z"/>
<path d="M465 110 c27 -12 43 -12 25 0 -8 5 -22 9 -30 9 -10 0 -8 -3 5 -9z"/>
<path d="M293 95 c-3 -9 -3 -18 -1 -21 3 -3 8 4 11 16 6 23 -1 27 -10 5z"/>
<path d="M390 96 c0 -8 4 -17 9 -20 5 -4 7 3 4 14 -6 23 -13 26 -13 6z"/>
<path d="M885 545 c-16 -15 -25 -36 -25 -55 0 -38 39 -80 73 -80 13 0 32 10
43 22 l19 21 -26 -17 c-33 -21 -55 -13 -68 24 -12 35 -1 80 23 94 14 9 22 6
42 -19 l24 -30 0 26 c0 19 -6 28 -22 33 -41 10 -58 6 -83 -19z"/>
<path d="M1223 558 c-47 -23 -53 -103 -10 -133 30 -21 60 -19 91 6 20 16 26
29 26 59 0 30 -6 43 -26 59 -29 23 -48 25 -81 9z m65 -31 c10 -20 11 -39 5
-65 -16 -68 -73 -47 -73 26 0 71 41 95 68 39z"/>
<path d="M1553 558 c-28 -13 -46 -58 -37 -92 17 -70 121 -76 137 -8 4 19 1 22
-26 22 -22 0 -28 -3 -19 -9 19 -12 11 -45 -12 -49 -27 -6 -46 24 -46 69 0 65
51 91 77 39 l13 -25 0 26 c0 36 -41 49 -87 27z"/>
<path d="M1699 541 c-16 -16 -29 -37 -29 -46 0 -22 28 -75 40 -75 6 0 20 -11
32 -25 22 -25 62 -33 73 -15 4 6 3 10 -2 9 -37 -6 -44 18 -13 46 31 28 27 88
-6 114 -36 28 -60 26 -95 -8z m69 11 c18 -12 26 -72 13 -104 -21 -55 -71 -26
-71 42 0 56 25 82 58 62z"/>
<path d="M2131 557 c-49 -25 -52 -103 -5 -133 37 -25 95 -9 105 29 7 25 5 27
-24 27 -22 0 -28 -3 -19 -9 19 -12 11 -45 -12 -49 -26 -5 -46 24 -46 66 0 70
45 98 74 45 l15 -28 1 26 c0 19 -6 28 -22 33 -32 8 -40 7 -67 -7z"/>
<path d="M1018 500 c2 -34 -1 -66 -7 -73 -8 -10 -2 -13 24 -13 26 0 32 3 24
12 -6 7 -9 23 -7 36 2 18 9 23 33 23 24 0 31 -5 33 -23 2 -13 -1 -29 -7 -36
-8 -9 -2 -12 24 -12 26 0 32 3 24 13 -6 7 -9 39 -7 73 l3 60 -30 -1 c-16 0
-24 -3 -17 -6 6 -2 12 -16 12 -29 0 -21 -5 -24 -35 -24 -30 0 -35 3 -35 24 0
13 6 27 13 29 6 3 -1 6 -18 6 l-30 1 3 -60z"/>
<path d="M1357 549 c10 -10 10 -32 -2 -109 -3 -21 1 -25 21 -26 19 -2 22 1 14
11 -6 8 -10 32 -8 54 l3 41 45 -57 45 -58 3 70 c2 40 8 73 15 77 7 5 0 8 -18
8 -20 0 -26 -3 -17 -9 8 -5 12 -23 10 -47 l-3 -39 -34 48 c-25 35 -41 47 -60
47 -18 0 -22 -3 -14 -11z"/>
<path d="M1848 553 c15 -6 17 -114 2 -129 -7 -7 2 -10 25 -10 26 0 32 3 24 13
-6 7 -9 39 -7 73 l3 60 -30 -1 c-16 0 -24 -3 -17 -6z"/>
<path d="M1935 487 c0 -68 1 -72 23 -74 16 -1 20 3 13 11 -10 13 -20 96 -10
96 3 0 21 -22 40 -50 50 -73 59 -72 59 9 0 46 4 71 13 74 6 3 -1 6 -18 6 -20
0 -26 -2 -17 -8 8 -5 12 -23 10 -47 l-3 -39 -34 48 c-22 30 -42 47 -55 47 -19
0 -21 -6 -21 -73z"/>
<path d="M1781 271 c-27 -27 -16 -56 29 -79 19 -9 35 -24 35 -32 0 -24 -41
-23 -64 1 -21 22 -21 22 -21 2 0 -36 80 -46 103 -12 21 29 10 57 -29 71 -39
14 -49 31 -27 49 13 11 19 9 39 -14 l24 -28 0 25 c0 14 -6 26 -12 26 -7 0 -23
3 -35 6 -14 4 -28 -1 -42 -15z"/>
<path d="M868 268 c7 -7 12 -36 12 -65 0 -47 3 -55 25 -65 18 -8 35 -9 53 -2
24 8 27 15 30 64 2 30 8 60 14 67 8 10 4 13 -18 12 -16 0 -23 -3 -16 -6 7 -3
12 -25 12 -58 0 -59 -16 -81 -50 -70 -20 6 -21 13 -18 71 l3 64 -29 0 c-23 0
-27 -3 -18 -12z"/>
<path d="M1038 268 c16 -16 16 -110 0 -126 -9 -9 -6 -12 16 -12 24 0 26 2 17
14 -7 8 -11 34 -9 57 l3 43 45 -60 45 -59 3 65 c2 35 8 70 14 77 8 10 4 13
-18 13 -20 0 -25 -3 -16 -9 8 -5 12 -22 10 -46 l-3 -38 -33 47 c-25 35 -40 46
-60 46 -20 0 -23 -3 -14 -12z"/>
<path d="M1208 273 c17 -7 17 -129 0 -136 -7 -3 5 -6 27 -6 30 -1 36 2 27 11
-16 16 -16 125 1 131 6 3 -6 5 -28 5 -22 0 -34 -2 -27 -5z"/>
<path d="M1287 274 c6 -3 24 -36 38 -75 15 -38 30 -69 35 -69 4 0 20 30 36 68
16 37 33 70 39 74 5 4 -3 8 -20 8 -20 0 -26 -3 -17 -9 11 -6 10 -16 -4 -49 -9
-23 -19 -42 -24 -42 -10 0 -32 79 -25 90 4 6 -9 10 -32 9 -21 0 -33 -3 -26 -5z"/>
<path d="M1458 273 c16 -6 16 -115 0 -131 -9 -9 3 -12 55 -12 62 0 67 2 67 22
0 20 -1 20 -19 4 -11 -10 -28 -16 -38 -14 -15 3 -18 14 -20 66 -2 58 0 62 21
62 12 0 27 -5 34 -12 9 -9 12 -8 12 5 0 14 -10 17 -62 16 -35 0 -57 -3 -50 -6z"/>
<path d="M1608 274 c16 -7 16 -116 0 -132 -9 -9 -3 -12 27 -12 30 0 36 3 27
12 -7 7 -12 23 -12 37 1 25 2 25 31 -12 17 -20 40 -37 50 -37 18 0 18 3 -7 35
-26 35 -26 36 -8 56 30 34 8 54 -62 56 -32 1 -53 0 -46 -3z m80 -31 c-2 -17
-10 -29 -20 -31 -14 -3 -18 3 -18 27 0 25 4 31 21 31 16 0 20 -5 17 -27z"/>
<path d="M1908 273 c16 -6 16 -115 0 -131 -9 -9 -3 -12 28 -12 25 0 34 3 26 9
-10 6 -13 27 -10 75 l3 66 -30 -1 c-16 0 -24 -3 -17 -6z"/>
<path d="M1973 258 c-2 -21 -1 -22 11 -5 7 9 21 17 30 17 13 0 16 -11 16 -58
0 -32 -5 -63 -12 -70 -9 -9 -3 -12 27 -12 30 0 36 3 27 12 -18 18 -16 128 3
128 7 0 19 -8 24 -17 9 -16 10 -16 11 5 0 21 -4 22 -68 22 -63 0 -68 -2 -69
-22z"/>
<path d="M2125 272 c17 -11 55 -81 55 -101 0 -9 -5 -22 -12 -29 -9 -9 -3 -12
27 -12 30 0 36 3 27 12 -20 20 -14 53 18 96 28 39 29 42 9 42 -11 0 -17 -4
-14 -10 3 -5 -2 -21 -11 -35 l-17 -26 -18 28 c-14 20 -15 29 -6 35 7 4 -5 8
-28 8 -22 0 -35 -4 -30 -8z"/>
<path d="M1532 224 c-11 -12 -10 -17 2 -30 15 -14 16 -12 16 15 0 35 0 36 -18
15z"/>
</g>
</svg>
